<svg width="360" height="127" viewBox="0 0 360 127" fill="none" xmlns="http://www.w3.org/2000/svg">
<path d="M30.9233 34.9338C30.9233 36.1778 30.3491 37.1348 29.3922 37.8046C28.2439 38.5702 26.9041 38.953 25.5644 39.24C22.5022 39.8142 19.3443 39.9099 16.1863 39.8142C12.2629 39.8142 8.33941 39.7185 4.41594 38.9529C3.459 38.7615 2.40636 38.3788 1.54511 37.9003C0.301082 37.3261 -0.0817019 36.0821 0.0139925 34.7424C0.0139925 34.3596 0.205381 34.2639 0.492465 34.2639C1.16233 34.3596 1.83219 34.551 2.50205 34.7424C4.70302 35.4122 6.904 36.2735 9.20066 36.752C14.4639 37.9003 19.727 37.6132 24.9902 35.9864C26.1386 35.6036 27.1912 35.0295 28.3395 34.6467C29.0094 34.4553 29.6793 34.3596 30.3491 34.2639C30.7319 34.2639 30.9233 34.551 30.9233 34.9338Z" fill="#F0F0F0"/>
<path d="M24.7039 33.0201C24.7039 34.3598 24.7039 34.3598 23.3642 34.6469C20.6847 35.221 18.101 35.6038 15.6129 35.6038C12.3593 35.6038 9.48847 35.1253 6.71333 34.5512C6.23486 34.4555 6.13916 34.2641 6.13916 33.7856C6.04346 31.2976 6.23486 28.8095 6.71333 26.3215C7.09611 24.0248 7.67027 21.8238 8.14875 19.5272C8.14875 19.3358 8.24445 19.0487 8.34015 18.8573C8.81862 17.4219 9.01 17.3262 10.5411 17.8046C11.211 17.996 11.8808 18.2831 12.5507 18.5702C14.4646 19.3358 16.3785 19.3358 18.2924 18.5702C19.2493 18.2831 20.1105 17.9004 21.0675 17.6133C21.6417 17.4219 22.0245 17.6133 22.2158 18.1874C22.6943 20.0056 23.2685 21.8238 23.6513 23.7377C24.3211 26.7999 24.7039 29.8622 24.7039 33.0201Z" fill="#F0F0F0"/>
<path d="M233.05 81.4855C226.182 79.1832 219.734 75.8079 213.988 71.3887C211.032 69.1157 208.281 66.5891 205.764 63.8381C203.325 61.1651 201.101 58.2483 198.36 55.8583C193.843 51.9269 187.258 49.5076 181.795 53.0585C176.42 56.5509 174.82 63.4674 176.215 69.4084C178.264 78.1687 185.21 84.3828 190.468 91.2798C191.199 92.2456 192.75 91.153 192.009 90.1775C187.678 84.4901 182.205 79.4271 179.327 72.7642C176.742 66.7745 176.722 58.8044 182.683 54.7462C189.024 50.4246 196.038 55.751 200.282 60.4335C204.486 65.077 208.486 69.6328 213.529 73.4081C219.207 77.6516 225.538 80.9489 232.259 83.2024C233.401 83.5829 234.211 81.8659 233.05 81.4855Z" fill="#5D5D5D"/>
<path d="M231.498 98.811C219.723 99.7085 207.802 96.3039 198.447 89.0557C193.686 85.3682 189.628 80.7832 186.535 75.6129C183.96 71.301 180.068 64.5016 182.926 59.5263C183.531 58.4728 181.814 57.6826 181.209 58.7362C178.341 63.7406 181.336 69.9645 183.765 74.5105C186.877 80.3442 191.14 85.5438 196.261 89.7288C206.134 97.7964 218.982 101.669 231.663 100.694C232.883 100.596 232.717 98.7134 231.507 98.811H231.498Z" fill="#5D5D5D"/>
<path d="M232.121 85.0657C221.849 82.1684 212.406 76.6566 204.806 69.1646C202.884 67.272 201.099 65.2527 199.451 63.126C197.919 61.1555 196.583 59.0093 194.807 57.2436C191.822 54.2584 186.915 52.7951 183.598 56.1022C182.74 56.9607 184.203 58.1606 185.062 57.3021C187.139 55.2242 190.427 56.0729 192.495 57.6923C194.495 59.2629 195.861 61.5066 197.373 63.5162C200.221 67.3013 203.509 70.7742 207.118 73.8374C214.298 79.9344 222.737 84.3731 231.789 86.929C232.96 87.2607 233.282 85.3974 232.121 85.0657Z" fill="#5D5D5D"/>
<path d="M231.351 89.758C220.445 87.6313 210.368 82.1879 202.534 74.3153C200.564 72.335 198.749 70.1888 197.11 67.9256C195.501 65.7014 194.311 63.0772 192.477 61.0384C189.765 58.024 183.999 57.702 183.619 62.7553C183.414 65.5161 184.897 68.3841 186.175 70.7254C187.892 73.8666 190.165 76.6274 192.837 79.0077C193.745 79.8173 194.945 78.354 194.037 77.5444C191.13 74.9592 188.73 71.8668 187.072 68.3451C186.087 66.2575 183.658 59.6141 188.565 60.6774C191.755 61.37 193.374 65.8965 195.071 68.3256C196.71 70.6766 198.544 72.8813 200.525 74.9494C208.68 83.4853 219.43 89.358 231.02 91.6213C232.22 91.8554 232.542 89.9921 231.351 89.758Z" fill="#5D5D5D"/>
<path d="M230.463 94.2162C217.849 94.7917 205.431 89.9433 196.485 81.0465C195.627 80.188 194.427 81.6513 195.285 82.5098C204.572 91.7481 217.557 96.7038 230.629 96.0989C231.848 96.0404 231.682 94.1576 230.473 94.2162H230.463Z" fill="#5D5D5D"/>
<path d="M218.24 91.0847C219.391 91.4554 220.191 89.7384 219.03 89.3677C206.241 85.2608 195.383 76.1395 189.276 64.1503C188.73 63.0772 186.945 63.721 187.501 64.8039C193.822 77.2321 204.943 86.8216 218.24 91.0847Z" fill="#5D5D5D"/>
<path d="M231.965 103.601C218.698 104.879 205.304 100.674 195.139 92.0505C194.212 91.2603 193.002 92.7236 193.939 93.5138C204.465 102.44 218.395 106.81 232.131 105.484C233.34 105.366 233.184 103.484 231.975 103.601H231.965Z" fill="#5D5D5D"/>
<path d="M230.96 107.883C208.826 109.776 187.432 97.8452 177.521 77.9346C176.984 76.8518 175.199 77.4956 175.745 78.5882C186.037 99.2695 208.084 111.747 231.126 109.776C232.346 109.669 232.18 107.786 230.97 107.893L230.96 107.883Z" fill="#5D5D5D"/>
<path d="M184.554 49.6149C194.3 46.4444 201.89 54.7852 207.44 61.5359C208.211 62.4724 209.752 61.3798 208.982 60.4335C202.602 52.678 193.822 43.791 182.847 48.2296C172.409 52.4439 169.414 64.9502 174.653 74.3641C175.248 75.4274 176.779 74.3153 176.194 73.2618C171.336 64.5405 174.653 52.8439 184.554 49.6246V49.6149Z" fill="#5D5D5D"/>
<path d="M232.435 76.0324C224.669 73.5253 217.704 69.1939 212.017 63.3407C211.168 62.4725 209.978 63.9358 210.817 64.804C216.602 70.7548 223.743 75.2032 231.645 77.7493C232.786 78.12 233.596 76.4031 232.435 76.0324Z" fill="#5D5D5D"/>
<path d="M228.436 110.488C207.169 113.902 185.717 103.65 175.172 84.8414C172.04 79.2614 170.001 73.1253 169.104 66.7941C168.938 65.5942 167.045 65.7502 167.221 66.9501C170.421 89.5825 187.931 108.049 210.447 112.166C216.437 113.259 222.592 113.327 228.601 112.361C229.801 112.166 229.645 110.283 228.445 110.478L228.436 110.488Z" fill="#5D5D5D"/>
<path d="M205.86 50.6002C200.378 44.1812 191.422 41.2351 183.218 43.4301C174.78 45.6835 168.38 53.3707 167.258 61.9554C167.102 63.1651 168.965 63.4967 169.122 62.2871C170.136 54.5023 175.755 47.5956 183.345 45.3519C190.808 43.1472 199.295 45.8299 204.319 51.7026C205.099 52.6196 206.65 51.527 205.86 50.6002Z" fill="#5D5D5D"/>
<path d="M208.533 53.1269C207.655 52.2782 206.465 53.7415 207.333 54.5902C214.659 61.6921 222.629 68.072 231.165 73.6618C232.17 74.3252 233.39 72.8717 232.365 72.1985C223.829 66.6087 215.859 60.2288 208.533 53.1269Z" fill="#5D5D5D"/>
<path d="M218.826 55.4583C210.29 47.0785 200.398 37.9768 187.56 38.6889C186.341 38.7572 186.507 40.64 187.717 40.5717C200.008 39.8888 209.49 48.9223 217.626 56.9119C218.495 57.7606 219.694 56.2973 218.826 55.4486V55.4583Z" fill="#5D5D5D"/>
<path d="M222.328 58.9214C221.333 58.2288 220.124 59.6823 221.128 60.3847C224.787 62.9308 228.445 65.477 232.093 68.0329C233.088 68.7255 234.298 67.272 233.293 66.5696C229.635 64.0234 225.977 61.4773 222.328 58.9214Z" fill="#5D5D5D"/>
<path d="M163.378 58.7263C160.87 69.8474 164.958 81.0075 171.153 90.158C171.835 91.1628 173.377 90.0604 172.694 89.0556C166.987 80.627 163.124 70.501 165.007 60.2092C166.685 51.0489 173.455 42.8935 182.986 41.518C184.186 41.3424 184.03 39.4596 182.83 39.6352C172.889 41.0692 165.543 49.1564 163.387 58.7263H163.378Z" fill="#5D5D5D"/>
<path d="M174.401 94.7918C181.513 103.435 190.936 109.932 201.579 113.415C202.721 113.785 203.53 112.078 202.369 111.698C192.039 108.313 182.849 102.089 175.933 93.6894C175.162 92.7529 173.621 93.8455 174.391 94.7918H174.401Z" fill="#5D5D5D"/>
<path d="M222.952 114.878C217.138 115.346 211.363 114.888 205.695 113.512C204.505 113.219 204.183 115.093 205.363 115.375C211.178 116.79 217.148 117.248 223.108 116.761C224.328 116.663 224.162 114.78 222.952 114.878Z" fill="#5D5D5D"/>
<path d="M210.32 119.707C190.799 114.576 173.884 100.899 164.802 82.8611C164.265 81.788 162.48 82.4318 163.026 83.5147C172.43 102.196 189.756 116.244 209.988 121.57C211.169 121.882 211.49 120.019 210.32 119.707Z" fill="#5D5D5D"/>
<path d="M186.827 114.156C177.979 108.215 170.604 100.401 165.19 91.2213C164.575 90.1775 163.034 91.2799 163.648 92.3237C169.141 101.63 176.652 109.6 185.627 115.619C186.632 116.292 187.842 114.839 186.827 114.156Z" fill="#5D5D5D"/>
<path d="M189.833 116.058C188.711 115.58 187.921 117.297 189.043 117.775C193.384 119.639 197.735 121.512 202.076 123.375C203.198 123.853 203.988 122.136 202.866 121.658C198.525 119.795 194.174 117.922 189.833 116.058Z" fill="#5D5D5D"/>
<path d="M169.376 42.2887C158.665 50.8831 155.075 65.6721 160.772 78.198C161.269 79.3003 163.054 78.6565 162.547 77.5444C157.201 65.799 160.401 51.9172 170.478 43.83C171.425 43.0691 170.332 41.5277 169.376 42.2887Z" fill="#5D5D5D"/>
<path d="M173.854 38.7475C172.8 39.362 173.912 40.8936 174.956 40.2888C185.638 34.0454 199.051 35.1868 208.563 43.0495C209.499 43.8202 210.709 42.3667 209.763 41.5862C199.559 33.1479 185.267 32.0748 173.844 38.7475H173.854Z" fill="#5D5D5D"/>
<path d="M213.169 44.4739C212.262 43.6642 211.052 45.1275 211.969 45.9372C218.086 51.3709 224.212 56.8046 230.329 62.2286C231.236 63.0383 232.445 61.575 231.528 60.7653C225.412 55.3316 219.286 49.8979 213.169 44.4739Z" fill="#5D5D5D"/>
<path d="M161.455 43.0984C157.007 48.6199 153.739 55.1657 153.505 62.3651C153.222 70.9303 156.724 78.9394 160.138 86.5875C160.636 87.6899 162.411 87.046 161.914 85.9339C158.743 78.8321 155.446 71.4473 155.378 63.5162C155.319 56.3266 158.49 49.8003 162.919 44.2983C163.68 43.352 162.226 42.1423 161.455 43.0984Z" fill="#5D5D5D"/>
<path d="M202.29 31.6943C190.183 27.4898 177.082 31.0115 167.229 38.7572C166.273 39.5084 167.375 41.0497 168.331 40.2985C178.096 32.6211 191.364 29.1287 203.187 34.0649C213.713 38.4548 219.81 48.932 229.204 54.99C230.219 55.6436 231.429 54.1901 230.404 53.5267C220.356 47.0492 213.947 35.7526 202.28 31.7041L202.29 31.6943Z" fill="#5D5D5D"/>
<path d="M174.586 109.795C164.245 98.7621 156.734 85.3973 152.685 70.8326C152.363 69.662 150.588 70.3254 150.91 71.4862C154.997 86.1973 162.607 99.7571 173.045 110.898C173.864 111.776 175.415 110.683 174.586 109.795Z" fill="#5D5D5D"/>
<path d="M177.15 112.049C176.175 111.327 174.965 112.781 175.951 113.512C181.55 117.668 187.491 121.346 193.705 124.506C194.798 125.062 195.578 123.336 194.495 122.789C188.418 119.707 182.623 116.117 177.15 112.059V112.049Z" fill="#5D5D5D"/>
<path d="M157.952 94.2747C157.425 93.1918 155.649 93.8357 156.176 94.9283C162.683 108.43 173.667 119.395 187.208 125.833C188.31 126.36 189.1 124.643 187.998 124.116C174.936 117.902 164.234 107.308 157.952 94.2747Z" fill="#5D5D5D"/>
<path d="M187.59 28.3777C188.77 28.1338 188.624 26.251 187.434 26.4949C176.966 28.6411 166.625 32.4944 158.948 40.1914C152.285 46.8835 148.412 56.3754 150.08 65.8478C150.295 67.038 152.178 66.8819 151.963 65.6917C150.373 56.6486 154.051 47.781 160.411 41.401C167.689 34.0943 177.678 30.4165 187.599 28.3874L187.59 28.3777Z" fill="#5D5D5D"/>
<path d="M192.409 26.1339C191.199 26.0265 190.867 27.8898 192.077 27.9971C204.779 29.1092 216.67 35.4209 224.64 45.3908C225.401 46.3371 226.943 45.2445 226.182 44.2885C217.929 33.9479 205.598 27.285 192.409 26.1339Z" fill="#5D5D5D"/>
<path d="M154.704 88.9485C149.963 75.73 144.87 60.941 150.548 47.1665C151.006 46.0446 149.289 45.2447 148.831 46.3763C142.949 60.6581 148.012 75.8666 152.938 89.6021C153.348 90.7532 155.123 90.0898 154.713 88.9485H154.704Z" fill="#5D5D5D"/>
<path d="M151.729 42.3375C150.968 43.2838 152.431 44.4934 153.192 43.5374C160.167 34.7966 169.903 28.7191 180.8 26.2217C181.98 25.9486 181.317 24.1829 180.146 24.4463C168.947 27.0021 158.899 33.3529 151.729 42.3277V42.3375Z" fill="#5D5D5D"/>
<path d="M184.466 23.1292C183.286 23.4317 183.949 25.1974 185.12 24.9047C196.709 21.9684 207.918 27.6655 217.917 32.8748C219 33.4406 219.79 31.7139 218.707 31.1579C208.171 25.6656 196.621 20.0563 184.466 23.1292Z" fill="#5D5D5D"/>
<path d="M189.501 20.0172C198.056 20.6903 206.309 23.1487 213.831 27.2947C214.904 27.88 215.684 26.1631 214.621 25.5778C206.973 21.3732 198.534 18.8368 189.833 18.154C188.623 18.0564 188.291 19.9197 189.501 20.0172Z" fill="#5D5D5D"/>
<path d="M159.211 104.888C158.499 103.903 156.957 104.996 157.669 105.991C163.844 114.585 171.824 121.658 181.082 126.789C182.145 127.384 182.936 125.657 181.872 125.072C172.907 120.107 165.181 113.21 159.201 104.888H159.211Z" fill="#5D5D5D"/>
<path d="M156.304 99.8254C150.285 91.192 146.578 81.222 145.495 70.7546C145.368 69.5449 143.485 69.701 143.612 70.9107C144.724 81.7098 148.558 92.0212 154.762 100.928C155.455 101.923 156.996 100.82 156.304 99.8254Z" fill="#5D5D5D"/>
<path d="M144.793 64.5015C142.188 52.2586 147.319 39.8011 157.845 33.0114C158.87 32.348 157.767 30.8164 156.743 31.47C145.729 38.5719 140.179 51.8294 142.91 64.6576C143.164 65.838 145.046 65.6819 144.793 64.5015Z" fill="#5D5D5D"/>
<path d="M184.624 19.5295C176.244 21.1879 168.283 24.2121 160.918 28.5337C159.874 29.1483 160.977 30.6798 162.02 30.075C169.074 25.929 176.761 23.0024 184.789 21.4221C185.97 21.1879 185.823 19.3051 184.633 19.5393L184.624 19.5295Z" fill="#5D5D5D"/>
<path d="M169.502 20.466C168.371 20.9148 169.024 22.6902 170.156 22.2415C181.414 17.8126 194.281 14.2226 205.831 19.7539C206.933 20.2807 207.724 18.5637 206.621 18.037C194.612 12.2813 181.228 15.8615 169.493 20.466H169.502Z" fill="#5D5D5D"/>
<path d="M144.734 40.7766C149.865 32.8065 157.445 26.807 166.4 23.6853C167.552 23.2853 166.898 21.5099 165.747 21.9098C156.509 25.1291 148.568 31.353 143.28 39.5767C142.627 40.5913 144.08 41.8009 144.744 40.7766H144.734Z" fill="#5D5D5D"/>
<path d="M141.72 45.4201C142.003 44.23 140.14 43.908 139.857 45.0884C136.94 57.1265 137.828 69.8377 142.344 81.3587C142.793 82.4903 144.568 81.8367 144.12 80.7051C139.71 69.467 138.881 57.1558 141.72 45.4201Z" fill="#5D5D5D"/>
<path d="M137.115 46.3274C139.856 37.6451 145.729 30.3482 153.631 25.8217C154.684 25.2169 153.572 23.6853 152.529 24.2803C144.393 28.9531 138.227 36.5915 135.398 45.5372C135.037 46.6883 136.754 47.4882 137.115 46.3274Z" fill="#5D5D5D"/>
<path d="M158.372 23.0413C166.566 18.1734 175.697 15.2175 185.18 14.3298C186.389 14.2127 186.233 12.3299 185.024 12.447C175.19 13.3738 165.757 16.4662 157.27 21.5097C156.226 22.134 157.328 23.6656 158.372 23.051V23.0413Z" fill="#5D5D5D"/>
<path d="M189.842 13.6179C193.627 13.2375 197.373 13.4131 201.109 14.1447C202.309 14.3789 202.631 12.5156 201.441 12.2815C197.559 11.5205 193.627 11.3352 189.686 11.7352C188.476 11.862 188.632 13.7448 189.842 13.6179Z" fill="#5D5D5D"/>
<path d="M171.142 11.7448C170.03 12.2326 170.684 14.008 171.796 13.5203C179.629 10.0669 188.194 8.867 196.672 10.0962C197.881 10.2718 198.203 8.4085 197.003 8.2329C188.214 6.95495 179.268 8.15486 171.142 11.7448Z" fill="#5D5D5D"/>
<path d="M137.34 35.2259C144.89 25.7535 155.006 18.6906 166.498 14.8568C167.649 14.4666 166.996 12.7008 165.845 13.0813C154.06 17.0127 143.622 24.3097 135.876 34.026C135.115 34.9722 136.579 36.1819 137.34 35.2259Z" fill="#5D5D5D"/>
<path d="M140.529 25.7241C153.045 15.9395 167.737 9.21812 183.345 6.23299C184.535 6.00862 184.379 4.11609 183.189 4.35022C167.249 7.41339 152.226 14.1933 139.437 24.1925C138.481 24.9437 139.573 26.485 140.539 25.7339L140.529 25.7241Z" fill="#5D5D5D"/>
<path d="M146.245 17.2566C155.376 11.2571 165.375 6.79888 175.921 3.96984C177.101 3.65767 176.438 1.8822 175.267 2.19437C164.556 5.06243 154.401 9.62792 145.143 15.7152C144.128 16.3884 145.231 17.9199 146.245 17.2566Z" fill="#5D5D5D"/>
<path d="M150.168 10.7009C151.817 9.82296 153.465 8.95473 155.114 8.07675C156.177 7.51095 155.534 5.73548 154.46 6.30129C152.812 7.17927 151.163 8.04749 149.514 8.92547C148.451 9.49128 149.095 11.2667 150.168 10.7009Z" fill="#5D5D5D"/>
<path d="M159.015 6.22325C162.781 4.52583 166.634 3.06253 170.575 1.82361C171.736 1.46266 171.083 -0.312806 169.922 0.0481403C165.981 1.28707 162.127 2.75036 158.362 4.44779C157.259 4.94531 157.903 6.72077 159.015 6.22325Z" fill="#5D5D5D"/>
<path d="M113.95 60.052C113.929 64.5137 113.931 68.9751 113.934 73.4377C113.934 74.8325 113.935 76.2274 113.935 77.6224V77.625V77.6276V77.6302V77.6328V77.6354V77.638V77.6406V77.6432V77.6458V77.6484V77.651V77.6536V77.6562V77.6588V77.6614V77.664V77.6666V77.6692V77.6718V77.6744V77.677V77.6796V77.6822V77.6848V77.6874V77.69V77.6926V77.6952V77.6978V77.7004V77.703V77.7056V77.7082V77.7108V77.7134V77.716V77.7186V77.7211V77.7237V77.7263V77.7289V77.7315V77.7341V77.7367V77.7393V77.7419V77.7445V77.7471V77.7497V77.7523V77.7549V77.7575V77.7601V77.7627V77.7653V77.7679V77.7705V77.7731V77.7757V77.7782V77.7808V77.7834V77.786V77.7886V77.7912V77.7938V77.7964V77.799V77.8016V77.8042V77.8068V77.8094V77.812V77.8146V77.8172V77.8197V77.8223V77.8249V77.8275V77.8301V77.8327V77.8353V77.8379V77.8405V77.8431V77.8457V77.8483V77.8509V77.8535V77.856V77.8586V77.8612V77.8638V77.8664V77.869V77.8716V77.8742V77.8768V77.8794V77.882V77.8846V77.8871V77.8897V77.8923V77.8949V77.8975V77.9001V77.9027V77.9053V77.9079V77.9105V77.9131V77.9156V77.9182V77.9208V77.9234V77.926V77.9286V77.9312V77.9338V77.9364V77.9389V77.9415V77.9441V77.9467V77.9493V77.9519V77.9545V77.9571V77.9597V77.9622V77.9648V77.9674V77.97V77.9726V77.9752V77.9778V77.9804V77.9829V77.9855V77.9881V77.9907V77.9933V77.9959V77.9985V78.0011V78.0036V78.0062V78.0088V78.0114V78.014V78.0166V78.0192V78.0217V78.0243V78.0269V78.0295V78.0321V78.0347V78.0373V78.0398V78.0424V78.045V78.0476V78.0502V78.0528V78.0553V78.0579V78.0605V78.0631V78.0657V78.0683V78.0709V78.0734V78.076V78.0786V78.0812V78.0838V78.0863V78.0889V78.0915V78.0941V78.0967V78.0993V78.1018V78.1044V78.107V78.1096V78.1122V78.1148V78.1173V78.1199V78.1225V78.1251V78.1277V78.1302V78.1328V78.1354V78.138V78.1406V78.1431V78.1457V78.1483V78.1509V78.1535V78.156V78.1586V78.1612V78.1638V78.1664V78.1689V78.1715V78.1741V78.1767V78.1793V78.1818V78.1844V78.187V78.1896V78.1921V78.1947V78.1973V78.1999V78.2024V78.205V78.2076V78.2102V78.2128V78.2153V78.2179V78.2205V78.2231V78.2256V78.2282V78.2308V78.2334V78.2359V78.2385V78.2411V78.2437V78.2462V78.2488V78.2514V78.254V78.2565V78.2591V78.2617V78.2643V78.2668V78.2694V78.272V78.2746V78.2771V78.2797V78.2823V78.2848V78.2874V78.29V78.2926V78.2951V78.2977V78.3003V78.3028V78.3054V78.308V78.3106V78.3131V78.3157V78.3183V78.3208V78.3234V78.326V78.3286V78.3311V78.3337V78.3363V78.3388V78.3414V78.344V78.3465V78.3491V78.3517V78.3542V78.3568V78.3594V78.362V78.3645V78.3671V78.3697V78.3722V78.3748V78.3774V78.3799V78.3825V78.3851V78.3876V78.3902V78.3928V78.3953V78.3979V78.4005V78.403V78.4056V78.4082V78.4107V78.4133V78.4158V78.4184V78.421V78.4235V78.4261V78.4287V78.4312V78.4338V78.4364V78.4389V78.4415V78.444V78.4466V78.4492V78.4517V78.4543V78.4569V78.4594V78.462V78.4645V78.4671V78.4697V78.4722V78.4748V78.4774V78.4799V78.4825V78.485V78.4876V78.4902V78.4927V78.4953V78.4978V78.5004V78.503V78.5055V78.5081V78.5106V78.5132V78.5157V78.5183V78.5209V78.5234V78.526V78.5285V78.5311V78.5336V78.5362V78.5388V78.5413V78.5439V78.5464V78.549V78.5515V78.5541V78.5553H119.889V78.5553V78.5524V78.5494V78.5465V78.5435V78.5406V78.5377V78.5347V78.5318V78.5289V78.5259V78.523V78.5201V78.5172V78.5142V78.5113V78.5084V78.5055V78.5026V78.4996V78.4967V78.4938V78.4909V78.488V78.4851V78.4822V78.4792V78.4763V78.4734V78.4705V78.4676V78.4647V78.4618V78.4589V78.456V78.4531V78.4502V78.4473V78.4444V78.4415V78.4386V78.4358V78.4329V78.43V78.4271V78.4242V78.4213V78.4184V78.4156V78.4127V78.4098V78.4069V78.404V78.4012V78.3983V78.3954V78.3925V78.3897V78.3868V78.3839V78.3811V78.3782V78.3753V78.3725V78.3696V78.3667V78.3639V78.361V78.3581V78.3553V78.3524V78.3496V78.3467V78.3439V78.341V78.3382V78.3353V78.3325V78.3296V78.3268V78.3239V78.3211V78.3182V78.3154V78.3125V78.3097V78.3069V78.304V78.3012V78.2983V78.2955V78.2927V78.2898V78.287V78.2842V78.2813V78.2785V78.2757V78.2729V78.27V78.2672V78.2644V78.2616V78.2587V78.2559V78.2531V78.2503V78.2475V78.2446V78.2418V78.239V78.2362V78.2334V78.2306V78.2278V78.2249V78.2221V78.2193V78.2165V78.2137V78.2109V78.2081V78.2053V78.2025V78.1997V78.1969V78.1941V78.1913V78.1885V78.1857V78.1829V78.1801V78.1773V78.1745V78.1717V78.1689V78.1661V78.1633V78.1605V78.1578V78.155V78.1522V78.1494V78.1466V78.1438V78.141V78.1383V78.1355V78.1327V78.1299V78.1271V78.1244V78.1216V78.1188V78.116V78.1132V78.1105V78.1077V78.1049V78.1022V78.0994V78.0966V78.0938V78.0911V78.0883V78.0855V78.0828V78.08V78.0772V78.0745V78.0717V78.0689V78.0662V78.0634V78.0607V78.0579V78.0551V78.0524V78.0496V78.0469V78.0441V78.0414V78.0386V78.0359V78.0331V78.0304V78.0276V78.0248V78.0221V78.0193V78.0166V78.0139V78.0111V78.0084V78.0056V78.0029V78.0001V77.9974V77.9946V77.9919V77.9892V77.9864V77.9837V77.9809V77.9782V77.9755V77.9727V77.97V77.9672V77.9645V77.9618V77.959V77.9563V77.9536V77.9508V77.9481V77.9454V77.9426V77.9399V77.9372V77.9345V77.9317V77.929V77.9263V77.9235V77.9208V77.9181V77.9154V77.9126V77.9099V77.9072V77.9045V77.9018V77.899V77.8963V77.8936V77.8909V77.8882V77.8854V77.8827V77.88V77.8773V77.8746V77.8719V77.8691V77.8664V77.8637V77.861V77.8583V77.8556V77.8529V77.8501V77.8474V77.8447V77.842V77.8393V77.8366V77.8339V77.8312V77.8285V77.8258V77.8231V77.8203V77.8176V77.8149V77.8122V77.8095V77.8068V77.8041V77.8014V77.7987V77.796V77.7933V77.7906V77.7879V77.7852V77.7825V77.7798V77.7771V77.7744V77.7717V77.769V77.7663V77.7636V77.7609V77.7582V77.7555V77.7528V77.7501V77.7474V77.7448V77.7421V77.7394V77.7367V77.734V77.7313V77.7286V77.7259V77.7232V77.7205V77.7178V77.7151V77.7124V77.7098V77.7071V77.7044V77.7017V77.699V77.6963V77.6936V77.6909V77.6882V77.6856V77.6829V77.6802V77.6775V77.6748V77.6721V77.6694V77.6668V77.6641V77.6614V77.6587V77.656V77.6533V77.6507V77.648V77.6453V77.6426V77.6399V77.6372V77.6346V77.6319V77.6292V77.6265V77.6238V77.6212V77.6185V77.6158V77.6131V77.6104V77.6078V77.6051V77.6024V77.5997V77.597V77.5944V77.5917V77.589V77.5863V77.5837V77.581V77.5783V77.5756V77.5729V77.5703V77.5676V77.5649V77.5622V77.5596V77.5569V77.5542V77.5515V77.5489V77.5462V77.5435V77.5408V77.5382V77.5355V77.5328V77.5301V77.5275V77.5248V77.5221V77.5194V77.5168V77.5141V77.5114V77.5087V77.5061V77.5034V77.5007V77.498V77.4954V77.4927V77.49V77.4873C119.889 76.2114 119.889 74.9352 119.888 73.6588C119.887 70.4683 119.886 67.2769 119.892 64.087V64.0865C119.893 63.6698 119.868 63.2382 119.837 62.7935C119.832 62.7148 119.826 62.6357 119.821 62.5561C119.795 62.19 119.769 61.8159 119.756 61.4478C119.724 60.5546 119.766 59.6366 120.107 58.8173C120.451 57.9924 121.101 57.3283 121.76 56.7301C121.935 56.5716 122.109 56.4181 122.281 56.2668C122.78 55.8283 123.257 55.4082 123.655 54.9375C124.191 54.303 124.785 53.9503 125.455 53.8111C126.111 53.6747 126.807 53.75 127.538 53.9083L127.839 53.9735V54.2819V78.5579H133.852V47.7924H133.834H133.812H133.789H133.767H133.745H133.722H133.7H133.677H133.655H133.633H133.61H133.588H133.566H133.543H133.521H133.498H133.476H133.454H133.431H133.409H133.386H133.364H133.342H133.319H133.297H133.274H133.252H133.23H133.207H133.185H133.163H133.14H133.118H133.095H133.073H133.051H133.028H133.006H132.983H132.961H132.939H132.916H132.894H132.872H132.849H132.827H132.804H132.782H132.76H132.737H132.715H132.692H132.67H132.648H132.625H132.603H132.58H132.558H132.536H132.513H132.491H132.469H132.446H132.424H132.401H132.379H132.357H132.334H132.312H132.289H132.267H132.245H132.222H132.2H132.177H132.155H132.133H132.11H132.088H132.066H132.043H132.021H131.998H131.976H131.954H131.931H131.909H131.886H131.864H131.842H131.819H131.797H131.775H131.752H131.73H131.707H131.685H131.663H131.64H131.618H131.595H131.573H131.551H131.528H131.506H131.483H131.461H131.439H131.416H131.394H131.372H131.349H131.327H131.304H131.282H131.26H131.237H131.215H131.192H131.17H131.148H131.125H131.103H131.08H131.058H131.036H131.013H130.991H130.969H130.946H130.924H130.901H130.879H130.857H130.834H130.812H130.789H130.767H130.745H130.722H130.7H130.678H130.655H130.633H130.61H130.588H130.566H130.543H130.521H130.498H130.476H130.454H130.431H130.409H130.386H130.364H130.342H130.319H130.297H130.275H130.252H130.23H130.207H130.185H130.163H130.14H130.118H130.095H130.073H130.051H130.028H130.006H129.983H129.961H129.939H129.916H129.894H129.872H129.849H129.827H129.804H129.782H129.76H129.737H129.715H129.692H129.67H129.648H129.625H129.603H129.581H129.558H129.536H129.513H129.491H129.469H129.446H129.424H129.401H129.379H129.357H129.334H129.312H129.289H129.267H129.245H129.222H129.2H129.178H129.155H129.133H129.11H129.088H129.066H129.043H129.021H128.998H128.976H128.954H128.931H128.909H128.886H128.864H128.842H128.819H128.797H128.775H128.752H128.73H128.707H128.685H128.663H128.64H128.618H128.595H128.573H128.551H128.528H128.506H128.484H128.461H128.439H128.416H128.394H128.372H128.349H128.327H128.304H128.282H128.26H128.237H128.215H128.192H128.17H128.148H128.125H128.103H128.081H128.058H128.036H128.013H127.991H127.969H127.946H127.924H127.901H127.879H127.857H127.834H127.812H127.79H127.767H127.745H127.722H127.7H127.678H127.655H127.633H127.61H127.588H127.566H127.543H127.521H127.498H127.476H127.454H127.431H127.409H127.387H127.364H127.342H127.319H127.297H127.275H127.252H127.23H127.207H127.185H127.163H127.14H127.118H127.095H127.073H127.051H127.028H127.006H126.984H126.961H126.939H126.916H126.894H126.872H126.849H126.827H126.804H126.782H126.76H126.737H126.715H126.693H126.67H126.648H126.625H126.603H126.581H126.558H126.536H126.513H126.491H126.469H126.446H126.424H126.401H126.379H126.357H126.334H126.312H126.29H126.267H126.245H126.222H126.2H126.178H126.155H126.133H126.11H126.088H126.066H126.043H126.021H125.998H125.976H125.954H125.931H125.909H125.887H125.864H125.842H125.819H125.797H125.775H125.752H125.73H125.707H125.685H125.663H125.64H125.618H125.596H125.573H125.551H125.528H125.506H125.484H125.461H125.439H125.416H125.394H125.372H125.349H125.327H125.304H125.282H125.26H125.237H125.215H125.193H125.17H125.148H125.125H125.103H125.081H125.058H125.036H125.013H124.991H124.969H124.946H124.924H124.901H124.879H124.857H124.834H124.812H124.79H124.767H124.745H124.722H124.7H124.678H124.655H124.633H124.61H124.588H124.566H124.543H124.521H124.499H124.476H124.454H124.431H124.409H124.387H124.364H124.342H124.319H124.297H124.275H124.252H124.23H124.207H124.185H124.163H124.14H124.118H124.096H124.073H124.051H124.028H124.006H123.984H123.961H123.939H123.916H123.894H123.872H123.849H123.827H123.804H123.782H123.76H123.737H123.715H123.693H123.67H123.648H123.625H123.603H123.581H123.558H123.536H123.513H123.491H123.469H123.446H123.424H123.402H123.379H123.357H123.334H123.312H123.29H123.267H123.245H123.222H123.2H123.178H123.155H123.133H123.11H123.088H123.066H123.043H123.021H122.999H122.976H122.954H122.931H122.923C121.885 48.7408 120.849 49.6881 119.845 50.6059C118.916 51.455 118.015 52.2788 117.165 53.0552L116.906 53.2913L116.649 53.0547C115.683 52.1693 114.648 51.2203 113.581 50.2419C112.704 49.439 111.807 48.6161 110.908 47.7924M113.95 60.052C113.95 60.0522 113.95 60.0524 113.95 60.0525L113.568 60.0502L113.95 60.052ZM113.95 60.052C113.953 59.6151 113.903 59.2056 113.755 58.8205C113.605 58.4315 113.361 58.0884 113.006 57.7734M113.006 57.7734C112.056 56.9308 111.126 56.0889 110.359 55.1335C109.844 54.4919 109.259 54.0761 108.572 53.876C107.89 53.6777 107.144 53.7014 106.322 53.8747L106.018 53.9386V54.2488V78.5681M113.006 57.7734L112.752 58.0594L113.006 57.7734C113.006 57.7734 113.006 57.7734 113.006 57.7734ZM106.018 78.5681H99.9771M106.018 78.5681V78.9504H99.9771V78.5681M106.018 78.5681H106.4V54.2488C107.973 53.9174 109.112 54.1902 110.061 55.3729L99.9771 47.41V47.7924M99.9771 78.5681V47.7924M99.9771 78.5681H99.5947V47.7924H99.6171H99.6395H99.6619H99.6843H99.7067H99.7291H99.7514H99.7738H99.7962H99.8186H99.841H99.8634H99.8858H99.9082H99.9305H99.9529H99.9753H99.9771M99.9771 47.7924H99.9977H100.02H100.042H100.065H100.087H100.11H100.132H100.154H100.177H100.199H100.222H100.244H100.266H100.289H100.311H100.334H100.356H100.378H100.401H100.423H100.445H100.468H100.49H100.513H100.535H100.557H100.58H100.602H100.625H100.647H100.669H100.692H100.714H100.737H100.759H100.781H100.804H100.826H100.848H100.871H100.893H100.916H100.938H100.96H100.983H101.005H101.028H101.05H101.072H101.095H101.117H101.139H101.162H101.184H101.207H101.229H101.251H101.274H101.296H101.319H101.341H101.363H101.386H101.408H101.431H101.453H101.475H101.498H101.52H101.542H101.565H101.587H101.61H101.632H101.654H101.677H101.699H101.722H101.744H101.766H101.789H101.811H101.833H101.856H101.878H101.901H101.923H101.945H101.968H101.99H102.013H102.035H102.057H102.08H102.102H102.125H102.147H102.169H102.192H102.214H102.236H102.259H102.281H102.304H102.326H102.348H102.371H102.393H102.416H102.438H102.46H102.483H102.505H102.528H102.55H102.572H102.595H102.617H102.639H102.662H102.684H102.707H102.729H102.751H102.774H102.796H102.819H102.841H102.863H102.886H102.908H102.93H102.953H102.975H102.998H103.02H103.042H103.065H103.087H103.11H103.132H103.154H103.177H103.199H103.222H103.244H103.266H103.289H103.311H103.333H103.356H103.378H103.401H103.423H103.445H103.468H103.49H103.513H103.535H103.557H103.58H103.602H103.625H103.647H103.669H103.692H103.714H103.736H103.759H103.781H103.804H103.826H103.848H103.871H103.893H103.916H103.938H103.96H103.983H104.005H104.027H104.05H104.072H104.095H104.117H104.139H104.162H104.184H104.207H104.229H104.251H104.274H104.296H104.319H104.341H104.363H104.386H104.408H104.43H104.453H104.475H104.498H104.52H104.542H104.565H104.587H104.61H104.632H104.654H104.677H104.699H104.722H104.744H104.766H104.789H104.811H104.833H104.856H104.878H104.901H104.923H104.945H104.968H104.99H105.013H105.035H105.057H105.08H105.102H105.124H105.147H105.169H105.192H105.214H105.236H105.259H105.281H105.304H105.326H105.348H105.371H105.393H105.416H105.438H105.46H105.483H105.505H105.527H105.55H105.572H105.595H105.617H105.639H105.662H105.684H105.707H105.729H105.751H105.774H105.796H105.819H105.841H105.863H105.886H105.908H105.93H105.953H105.975H105.998H106.02H106.042H106.065H106.087H106.11H106.132H106.154H106.177H106.199H106.221H106.244H106.266H106.289H106.311H106.333H106.356H106.378H106.401H106.423H106.445H106.468H106.49H106.513H106.535H106.557H106.58H106.602H106.624H106.647H106.669H106.692H106.714H106.736H106.759H106.781H106.804H106.826H106.848H106.871H106.893H106.916H106.938H106.96H106.983H107.005H107.027H107.05H107.072H107.095H107.117H107.139H107.162H107.184H107.207H107.229H107.251H107.274H107.296H107.318H107.341H107.363H107.386H107.408H107.43H107.453H107.475H107.498H107.52H107.542H107.565H107.587H107.61H107.632H107.654H107.677H107.699H107.721H107.744H107.766H107.789H107.811H107.833H107.856H107.878H107.901H107.923H107.945H107.968H107.99H108.013H108.035H108.057H108.08H108.102H108.124H108.147H108.169H108.192H108.214H108.236H108.259H108.281H108.304H108.326H108.348H108.371H108.393H108.415H108.438H108.46H108.483H108.505H108.527H108.55H108.572H108.595H108.617H108.639H108.662H108.684H108.707H108.729H108.751H108.774H108.796H108.818H108.841H108.863H108.886H108.908H108.93H108.953H108.975H108.998H109.02H109.042H109.065H109.087H109.11H109.132H109.154H109.177H109.199H109.221H109.244H109.266H109.289H109.311H109.333H109.356H109.378H109.401H109.423H109.445H109.468H109.49H109.512H109.535H109.557H109.58H109.602H109.624H109.647H109.669H109.692H109.714H109.736H109.759H109.781H109.804H109.826H109.848H109.871H109.893H109.915H109.938H109.96H109.983H110.005H110.027H110.05H110.072H110.095H110.117H110.139H110.162H110.184H110.207H110.229H110.251H110.274H110.296H110.318H110.341H110.363H110.386H110.408H110.43H110.453H110.475H110.498H110.52H110.542H110.565H110.587H110.609H110.632H110.654H110.677H110.699H110.721H110.744H110.766H110.789H110.811H110.833H110.856H110.878H110.901H110.908M110.908 47.7924C110.872 47.7589 110.835 47.7253 110.799 47.6918L111.057 47.41V47.7924H111.035H111.012H110.99H110.968H110.945H110.923H110.908ZM119.889 78.9377H113.935H119.889Z" fill="black" stroke="#F0F0F0" stroke-width="0.764678"/>
<path d="M20.4356 65.6935H20.0532H10.6783H10.2959V65.3111V54.2284V53.8808L10.642 53.8478C10.7211 53.8403 10.8116 53.8293 10.9093 53.8174C11.1553 53.7874 11.4478 53.7518 11.723 53.7518M20.4356 65.6935L18.975 54.129L18.9742 53.7467C18.9741 53.7467 18.9739 53.7467 18.9737 53.7467C17.7662 53.7492 16.5579 53.7492 15.3492 53.7492C14.1406 53.7492 12.9315 53.7492 11.723 53.7518M20.4356 65.6935V65.3111M20.4356 65.6935V65.3111M11.723 53.7518C11.7231 53.7518 11.7232 53.7518 11.7233 53.7518V54.1341L11.7225 53.7518C11.7227 53.7518 11.7228 53.7518 11.723 53.7518ZM20.4356 65.3111C20.4356 64.3303 20.4344 63.3617 20.4333 62.4019M20.4356 65.3111L20.4333 62.4019M20.4333 62.4019C20.4302 59.8749 20.4273 57.409 20.4457 54.9424L20.4333 62.4019ZM10.2322 72.1626V78.5808H4.20656V47.7924H26.3669V78.5503H20.4713V72.1626V71.7803H20.0889H10.6146H10.2322V72.1626ZM20.0532 65.3111C20.0532 65.1835 20.0532 65.056 20.0532 64.9288H20.0532V65.3111Z" fill="black" stroke="#F0F0F0" stroke-width="0.764678"/>
<path d="M59.3781 54.8051C59.3776 54.6608 59.3243 54.53 59.2764 54.4382C59.2242 54.3382 59.1559 54.2419 59.0835 54.1582C59.0114 54.0749 58.9262 53.9937 58.8347 53.9295C58.755 53.8736 58.6202 53.7944 58.4578 53.7901V53.7901L58.4531 53.79C56.1006 53.7571 53.7459 53.759 51.3648 53.761C50.7962 53.7615 50.226 53.762 49.654 53.762H49.2716V54.1443V65.3086V65.6909H49.654H59.0213H59.4036V65.3086C59.4036 64.6643 59.404 64.0218 59.4043 63.3806C59.4058 60.5032 59.4073 57.654 59.3781 54.8051ZM59.3781 54.8051C59.3781 54.8057 59.3781 54.8064 59.3781 54.807H58.9958M59.3781 54.8051C59.3781 54.8044 59.3781 54.8038 59.3781 54.8031L58.9958 54.807M58.9958 54.807C59.025 57.6543 59.0235 60.5016 59.022 63.3796C59.0216 64.021 59.0213 64.6638 59.0213 65.3086H58.6389H50.0363H49.654V64.9262V54.5266V54.1443C50.2267 54.1443 50.7974 54.1438 51.3664 54.1433C53.7473 54.1414 56.0983 54.1394 58.4478 54.1723C58.6415 54.1774 58.9958 54.5853 58.9958 54.807ZM65.3375 47.7924V78.5503H59.4418V72.1626V71.7803H59.0595H49.5877H49.2054V72.1626V78.5808H43.1797V47.7924H65.3375Z" fill="black" stroke="#F0F0F0" stroke-width="0.764678"/>
<path d="M155.496 53.79C153.144 53.7571 150.789 53.759 148.408 53.761C147.839 53.7615 147.269 53.762 146.697 53.762H146.315L156.039 54.807H156.421C156.421 54.8064 156.421 54.8057 156.421 54.8051C156.421 54.661 156.367 54.5301 156.32 54.4383C156.267 54.3381 156.199 54.2416 156.127 54.1576C156.055 54.0741 155.969 53.9925 155.877 53.9281C155.797 53.8723 155.661 53.7923 155.496 53.79ZM155.496 53.79L155.491 54.1723L155.496 53.79C155.496 53.79 155.496 53.79 155.496 53.79ZM162.38 47.7924V78.5503H156.485V72.1626V71.7803H156.102H146.631H146.248V72.1626V78.5808H140.223V47.7924H162.38Z" fill="black" stroke="#F0F0F0" stroke-width="0.764678"/>
<path d="M77.722 78.5732V70.4192V70.0368H78.1044C78.4765 70.0368 78.8414 70.0498 79.1858 70.0621C79.3688 70.0686 79.546 70.075 79.7155 70.079C80.2156 70.091 80.6729 70.0845 81.1138 70.0182L81.1139 70.0181C82.2973 69.8403 83.3378 69.9457 84.2537 70.3739C85.1687 70.8016 85.9226 71.5343 86.5635 72.5469C87.1249 73.4334 87.6511 74.2998 87.565 75.5182M77.722 78.5732L81.1707 70.3962C83.4265 70.0572 85.0145 70.8143 86.2405 72.7514C86.8038 73.641 87.2601 74.4108 87.1836 75.4915C87.1284 76.297 87.1417 77.1086 87.1547 77.903C87.1602 78.2449 87.1658 78.5836 87.1658 78.9173V78.535H87.5461M77.722 78.5732H71.7066V47.7924H93.6092M77.722 78.5732L93.6092 47.7924M87.565 75.5182C87.565 75.5183 87.565 75.5184 87.565 75.5185L87.1836 75.4915L87.5651 75.5177C87.5651 75.5179 87.5651 75.518 87.565 75.5182ZM87.565 75.5182C87.511 76.3067 87.5239 77.0915 87.5368 77.8782C87.5404 78.0969 87.5439 78.3158 87.5461 78.535M87.5461 78.535C87.5474 78.6623 87.5481 78.7897 87.5481 78.9173H93.5993C93.5993 78.7893 93.5996 78.6618 93.6001 78.535M87.5461 78.535H93.6001M93.6001 78.535C93.6019 78.088 93.6064 77.6478 93.611 77.2127C93.6253 75.8293 93.6392 74.4972 93.5617 73.1641M93.6001 78.535H93.9816V78.9173C93.9816 78.3476 93.9874 77.7859 93.9932 77.23C94.0076 75.8409 94.0217 74.4886 93.9434 73.1414M93.5617 73.1641L93.0232 63.8939C92.2763 64.6427 91.5713 65.4322 90.843 66.2478C90.525 66.6039 90.2025 66.965 89.8702 67.3299C90.1897 67.6868 90.5131 68.038 90.8354 68.3881C91.6339 69.2556 92.426 70.116 93.1379 71.0386M93.5617 73.1641C93.5233 72.5249 93.2353 71.7918 92.835 71.2718M93.5617 73.1641C93.5617 73.164 93.5617 73.1638 93.5617 73.1636L93.9434 73.1414M93.5617 73.1641C93.5617 73.1642 93.5617 73.1643 93.5617 73.1644L93.9434 73.1414M93.5617 73.1641L93.6222 61.4407M93.9434 73.1414C93.9 72.4201 93.5814 71.6146 93.1379 71.0386M93.1379 71.0386L92.835 71.2718M93.1379 71.0386L92.8352 71.2721C92.8351 71.272 92.835 71.2719 92.835 71.2718M92.835 71.2718C92.1339 70.3633 91.3594 69.5221 90.5656 68.6598C90.2409 68.307 89.9129 67.9508 89.5853 67.5849L89.355 67.3277L89.5875 67.0724C89.914 66.7139 90.2333 66.3564 90.5497 66.0021C91.2815 65.1826 91.9978 64.3804 92.7525 63.6239L92.7529 63.6236C93.3822 62.9943 93.6314 62.3532 93.6222 61.4407M93.6222 61.4407L94.0045 61.4368L93.6222 61.4406C93.6222 61.4407 93.6222 61.4407 93.6222 61.4407ZM93.6222 61.4407C93.587 58.0383 93.5949 54.6334 93.6028 51.232C93.6055 50.085 93.6082 48.9384 93.6092 47.7924M93.6222 61.4407L93.6092 47.7924M78.1324 53.4306H77.7501V53.8129V64.1055V64.4878H78.1324C78.5658 64.4878 78.9836 64.4763 79.3908 64.4651C80.2643 64.441 81.0894 64.4182 81.917 64.5133C82.8115 64.6168 83.6217 64.5416 84.334 64.2205C85.0504 63.8976 85.6324 63.3418 86.0945 62.5465L86.0945 62.5464C86.2323 62.3092 86.4071 62.0899 86.5997 61.8484C86.6866 61.7394 86.7771 61.6258 86.8695 61.5041C87.1412 61.1459 87.43 60.7113 87.4752 60.2148L87.4752 60.2142C87.61 58.7083 87.5851 57.178 87.5602 55.6411C87.5504 55.0324 87.5405 54.4226 87.5405 53.8129H87.1607V53.4306H87.1581H86.7758H78.1324Z" fill="black" stroke="#F0F0F0" stroke-width="0.764678"/>
<path d="M353.03 55.018C353.028 54.8576 352.958 54.7175 352.901 54.6256C352.838 54.5238 352.756 54.4272 352.671 54.3443C352.585 54.2612 352.486 54.1823 352.383 54.1214C352.289 54.0661 352.15 54.0016 351.995 53.9994C349.771 53.9637 347.547 53.9667 345.297 53.9698C344.664 53.9706 344.03 53.9715 343.393 53.9715H343.01V54.3538V65.4521V65.8345H343.393H352.678H353.06V65.4521C353.06 64.8008 353.061 64.1511 353.061 63.5028C353.063 60.6572 353.065 57.8374 353.03 55.018ZM353.03 55.018L352.648 55.0223M353.03 55.018C353.03 55.0178 353.03 55.0177 353.03 55.0175L352.648 55.0223M352.648 55.0223C352.683 57.8391 352.681 60.6559 352.679 63.5014C352.678 64.1501 352.678 64.8002 352.678 65.4521L343.393 54.3538C344.031 54.3538 344.666 54.3529 345.299 54.3521C347.549 54.3491 349.769 54.3461 351.988 54.3817C352.221 54.3842 352.645 54.7969 352.648 55.0223ZM358.934 48.0538V78.604H353.098V72.261V71.8787H352.716H343.33H342.947V72.261V78.6344H336.983V48.0538H358.934Z" fill="black" stroke="#F0F0F0" stroke-width="0.764678"/>
<path d="M275.31 75.601C275.395 74.3902 274.875 73.5292 274.32 72.6483L274.929 75.5748M275.31 75.601C275.31 75.6012 275.31 75.6014 275.31 75.6016L274.929 75.5748M275.31 75.601C275.31 75.6009 275.31 75.6008 275.31 75.6008L274.929 75.5748M275.31 75.601C275.257 76.3846 275.269 77.1645 275.282 77.9463C275.286 78.1628 275.289 78.3795 275.291 78.5964M274.929 75.5748C274.874 76.3751 274.887 77.1816 274.9 77.971C274.906 78.3107 274.911 78.6473 274.911 78.9788V78.5964H275.291M275.291 78.5964C275.293 78.7238 275.293 78.8512 275.293 78.9788H281.269C281.269 78.8507 281.27 78.7233 281.27 78.5964M275.291 78.5964H281.27M281.27 78.5964C281.272 78.1532 281.276 77.7166 281.281 77.2851C281.295 75.9103 281.309 74.5867 281.232 73.262M281.27 78.5964H281.652V78.9788C281.652 78.4127 281.658 77.8546 281.663 77.3023C281.677 75.9219 281.691 74.5782 281.614 73.2396M281.232 73.262L280.704 64.0508C279.965 64.7947 279.268 65.5792 278.548 66.3896C278.233 66.7435 277.914 67.1023 277.586 67.4649C277.902 67.8196 278.221 68.1685 278.54 68.5164C279.33 69.3784 280.113 70.2334 280.817 71.15M281.232 73.262C281.194 72.627 280.91 71.8992 280.514 71.3829M281.232 73.262C281.232 73.2619 281.232 73.2617 281.232 73.2616L281.614 73.2396M281.232 73.262C281.232 73.2621 281.232 73.2622 281.232 73.2624L281.614 73.2396M281.232 73.262L281.292 61.613M281.614 73.2396C281.571 72.5228 281.256 71.7224 280.817 71.15M280.817 71.15L280.514 71.3829M280.817 71.15L280.514 71.3826C280.514 71.3827 280.514 71.3828 280.514 71.3829M280.514 71.3829C279.821 70.4802 279.055 69.6443 278.27 68.7874C277.949 68.4369 277.624 68.0828 277.3 67.7193L277.072 67.4627L277.302 67.2081C277.625 66.8519 277.941 66.4966 278.254 66.1445C278.978 65.3303 279.686 64.5331 280.433 63.7814L280.433 63.781C281.055 63.1563 281.301 62.5198 281.292 61.613M281.292 61.613C281.292 61.6131 281.292 61.6131 281.292 61.6131L281.674 61.6092L281.292 61.613ZM281.292 61.613C281.257 58.2319 281.265 54.8484 281.273 51.4682C281.276 50.3296 281.278 49.1914 281.279 48.0538M281.292 61.613L281.279 48.0538M281.279 48.0538H259.626V78.6344L281.279 48.0538ZM275.288 53.6641V54.0464C275.288 54.6524 275.299 55.2615 275.31 55.8716C275.338 57.4182 275.366 58.9711 275.216 60.4961L275.288 53.6641ZM275.288 53.6641H274.906M275.288 53.6641H274.906M274.906 53.6641H265.99H265.608M274.906 53.6641H265.608M265.608 53.6641V54.0464M265.608 53.6641V54.0464M265.608 54.0464V64.261V64.6433M265.608 54.0464V64.6433M265.608 64.6433H265.99M265.608 64.6433H265.99M265.99 64.6433C266.444 64.6433 266.882 64.6328 267.31 64.6225C268.24 64.6002 269.121 64.579 270.005 64.6692L270.005 64.6692M265.99 64.6433L270.005 64.6692M270.005 64.6692C270.801 64.7499 271.517 64.672 272.148 64.378M270.005 64.6692L272.148 64.378M272.148 64.378C272.782 64.0828 273.295 63.5859 273.711 62.8897M272.148 64.378L273.711 62.8897M273.711 62.8897C273.862 62.6384 274.059 62.4065 274.276 62.1507M273.711 62.8897L274.276 62.1507M274.276 62.1507C274.365 62.0461 274.457 61.9376 274.551 61.822M274.276 62.1507L274.551 61.822M274.551 61.822C274.846 61.4583 275.166 61.0132 275.216 60.4967L274.551 61.822Z" fill="black" stroke="#F0F0F0" stroke-width="0.764678"/>
<path d="M247.354 72.3224V67.5058H253.257V78.6344H231.73V48.0538H253.396V59.2661H247.371V54.4318V54.0495H246.989H238.134H237.752V54.4318V72.3224V72.7047H238.134H246.971H247.354V72.3224Z" fill="black" stroke="#F0F0F0" stroke-width="0.764678"/>
<path d="M211.953 72.9175H225.432V78.6344H205.562V48.0538H225.502V53.7859H211.981H211.599V54.1683V59.9778V60.3602H211.981H221.849V66.1075H211.953H211.571V66.4898V72.5352V72.9175H211.953Z" fill="black" stroke="#F0F0F0" stroke-width="0.764678"/>
<path d="M294.199 72.9175H307.678V78.6344H287.808V48.0538H307.749V53.7859H294.227H293.845V54.1683V59.9778V60.3602H294.227H304.095V66.1075H294.199H293.817V66.4898V72.5352V72.9175H294.199Z" fill="black" stroke="#F0F0F0" stroke-width="0.764678"/>
<path d="M192.924 66.1698H180.256V48.0538H199.334V53.5379H186.72H186.337V53.9203V60.202V60.5843H186.72H199.253V78.6344H180.317V73.2466H192.924H193.306V72.8643V66.5521V66.1698H192.924Z" fill="black" stroke="#F0F0F0" stroke-width="0.764678"/>
<path d="M318.785 54.0339H311.676V48.0538H332.479V53.9376H325.401H325.018V54.32V78.6344H319.168V54.4162V54.0339H318.785Z" fill="black" stroke="#F0F0F0" stroke-width="0.764678"/>
<path d="M26.7493 45.371V76.8935H20.0889V70.1236H10.6146V76.9241H3.82422V45.371H26.7493ZM20.0532 63.2721C20.0532 59.7112 20.0379 56.3059 20.0634 52.9005C20.0711 52.0543 19.5485 52.0874 18.975 52.0899C16.5586 52.095 14.1397 52.0899 11.7233 52.095C11.3614 52.095 10.9994 52.1588 10.6783 52.1893V63.2721H20.0532Z" fill="url(#paint0_linear_1427_4367)"/>
<path d="M134.235 45.371V76.9012H127.457V52.2429C126.032 51.9345 124.921 51.9931 123.947 53.1452C122.833 54.463 121.077 55.4443 120.46 56.9252C119.843 58.4062 120.279 60.323 120.274 62.0486C120.267 66.5143 120.272 70.9826 120.272 75.4483C120.272 75.9045 120.272 76.3634 120.272 76.8986H113.553C113.553 76.4679 113.553 76.0269 113.553 75.5834C113.553 69.726 113.54 63.8685 113.568 58.0111C113.573 57.1954 113.382 56.5786 112.752 56.0204C111.804 55.1792 110.851 54.3177 110.061 53.3338C109.112 52.1511 107.973 51.8784 106.4 52.2097V76.9114H99.5947V45.371C103.416 45.371 107.236 45.371 111.057 45.371C113.086 47.2317 115.118 49.0924 116.907 50.7339C118.707 49.0899 120.741 47.2291 122.775 45.371C126.595 45.371 130.416 45.371 134.237 45.371H134.235Z" fill="url(#paint1_linear_1427_4367)"/>
<path d="M65.7194 45.371V76.8935H59.059V70.1236H49.5872V76.9241H42.7969V45.371H65.7219H65.7194ZM49.6535 52.1052V63.2695H59.0208C59.0208 59.7316 59.031 56.2498 58.9953 52.768C58.9953 52.5462 58.641 52.1384 58.4473 52.1333C55.5364 52.0925 52.623 52.1052 49.6535 52.1052Z" fill="url(#paint2_linear_1427_4367)"/>
<path d="M162.762 45.371V76.8935H156.102V70.1236H146.63V76.9241H139.84V45.371H162.765H162.762ZM146.696 52.1052V63.2695H156.064C156.064 59.7316 156.074 56.2498 156.038 52.768C156.038 52.5462 155.684 52.1358 155.49 52.1333C152.579 52.0925 149.666 52.1052 146.696 52.1052Z" fill="url(#paint3_linear_1427_4367)"/>
<path d="M93.9918 45.371C93.9893 50.0457 93.9561 54.723 94.0045 59.3977C94.0147 60.4071 93.7293 61.1488 93.0232 61.8549C91.9501 62.9305 90.9637 64.0903 89.8702 65.2908C90.9815 66.5321 92.1387 67.7047 93.1379 68.9995C93.5814 69.5756 93.9 70.381 93.9434 71.1024C94.053 72.9886 93.9816 74.885 93.9816 76.8782H87.1658C87.1658 75.7695 87.1046 74.6046 87.1836 73.4525C87.2601 72.3717 86.8038 71.602 86.2405 70.7124C85.0145 68.7752 83.4265 68.0182 81.1707 68.3572C80.2225 68.4999 79.2361 68.3801 78.1044 68.3801V76.9165H71.3242V45.371H93.9944H93.9918ZM87.1607 51.7739H78.1324V62.0664C79.4476 62.0664 80.7196 61.9517 81.9609 62.0945C83.6585 62.2907 84.9049 61.7937 85.7639 60.3153C86.1946 59.5736 87.0256 58.8981 87.0944 58.1411C87.2805 56.0612 87.1581 53.9532 87.1581 51.7739H87.1607Z" fill="url(#paint4_linear_1427_4367)"/>
<path d="M359.316 45.371V76.6858H352.716V69.9605H343.33V76.7162H336.601V45.371H359.319H359.316ZM343.393 52.0533V63.1516H352.678C352.678 59.6395 352.691 56.1806 352.648 52.7217C352.645 52.4964 352.221 52.0836 351.988 52.0811C349.144 52.0355 346.3 52.0533 343.393 52.0533Z" fill="url(#paint5_linear_1427_4367)"/>
<path d="M281.662 45.371C281.659 50.016 281.627 54.6636 281.674 59.3087C281.685 60.3116 281.402 61.0487 280.704 61.7502C279.643 62.819 278.667 63.9714 277.586 65.1644C278.685 66.3978 279.829 67.5629 280.817 68.8495C281.256 69.4219 281.571 70.2223 281.614 70.939C281.722 72.8133 281.652 74.6976 281.652 76.6782H274.911C274.911 75.5765 274.851 74.419 274.929 73.2742C275.004 72.2003 274.553 71.4354 273.996 70.5515C272.783 68.6266 271.213 67.8744 268.982 68.2113C268.044 68.3531 267.069 68.2341 265.95 68.2341V76.7162H259.244V45.371H281.664H281.662ZM274.906 51.7459H265.99V61.9604C267.386 61.9604 268.727 61.8541 270.043 61.9883C271.543 62.1403 272.612 61.6818 273.383 60.3927C273.845 59.6227 274.76 58.9414 274.835 58.1588C275.042 56.0566 274.906 53.9215 274.906 51.7459Z" fill="url(#paint6_linear_1427_4367)"/>
<path d="M253.778 45.371V57.3479H246.989V52.1313H238.134V70.0218H246.971V64.823H253.639V76.7162H231.348V45.371H253.778Z" fill="url(#paint7_linear_1427_4367)"/>
<path d="M225.885 45.371V51.8677H211.981V57.6773H222.231V64.1893H211.953V70.2347H225.814V76.7162H205.18V45.371H225.882H225.885Z" fill="url(#paint8_linear_1427_4367)"/>
<path d="M308.131 45.371V51.8677H294.227V57.6773H304.477V64.1893H294.199V70.2347H308.06V76.7162H287.426V45.371H308.128H308.131Z" fill="url(#paint9_linear_1427_4367)"/>
<path d="M199.716 45.371V51.6197H186.72V57.9015H199.635V76.7162H179.935V70.5637H192.924V64.2516H179.874V45.371H199.716Z" fill="url(#paint10_linear_1427_4367)"/>
<path d="M332.862 45.371V52.0194H325.401V76.7162H318.785V52.1157H311.294V45.371H332.862Z" fill="url(#paint11_linear_1427_4367)"/>
<path d="M19.7219 102.42V90.9134H21.4972V102.42H19.7219ZM28.0051 102.42V90.9134H31.4241L34.5473 101.236H34.8103V90.9134H36.5692V102.42H33.1501L30.0269 92.0805H29.7639V102.42H28.0051ZM45.4291 102.42L42.2237 90.9134H44.0647L46.8592 101.302H47.0729L49.8509 90.9134H51.6919L48.503 102.42H45.4291ZM57.3653 102.42V90.9134H64.6144V92.5243H59.1406V95.8283H64.1541V97.4393H59.1406V100.809H64.6966V102.42H57.3653ZM74.569 102.65C73.7033 102.65 72.9362 102.497 72.2677 102.19C71.5993 101.883 71.0732 101.434 70.6897 100.842C70.3171 100.239 70.1308 99.5104 70.1308 98.6557V98.2447H71.8897V98.6557C71.8897 99.4666 72.1307 100.075 72.6129 100.48C73.1061 100.886 73.7581 101.088 74.569 101.088C75.3909 101.088 76.0101 100.919 76.4265 100.579C76.8429 100.228 77.0511 99.7789 77.0511 99.231C77.0511 98.8693 76.9525 98.5735 76.7553 98.3433C76.558 98.1132 76.2786 97.9324 75.9169 97.8009C75.5553 97.6584 75.1224 97.5269 74.6183 97.4064L74.0101 97.2584C73.2759 97.0831 72.6348 96.8694 72.0869 96.6174C71.5499 96.3544 71.1335 96.0092 70.8376 95.5818C70.5418 95.1544 70.3938 94.6065 70.3938 93.938C70.3938 93.2586 70.5582 92.6778 70.8869 92.1956C71.2267 91.7134 71.6924 91.3408 72.2842 91.0778C72.8759 90.8148 73.5718 90.6833 74.3718 90.6833C75.1718 90.6833 75.8841 90.8203 76.5087 91.0942C77.1443 91.3682 77.6429 91.7737 78.0045 92.3106C78.3662 92.8476 78.547 93.5216 78.547 94.3325V94.9243H76.7881V94.3325C76.7881 93.8394 76.684 93.4394 76.4758 93.1325C76.2786 92.8257 75.9991 92.601 75.6375 92.4586C75.2759 92.3161 74.854 92.2449 74.3718 92.2449C73.6704 92.2449 73.1225 92.3928 72.728 92.6887C72.3444 92.9736 72.1527 93.3736 72.1527 93.8887C72.1527 94.2393 72.2349 94.5298 72.3992 94.7599C72.5746 94.9791 72.8266 95.1599 73.1554 95.3023C73.4841 95.4448 73.8951 95.5708 74.3882 95.6804L74.9964 95.8283C75.7416 95.9927 76.3991 96.2064 76.969 96.4694C77.5388 96.7215 77.9881 97.0667 78.3169 97.505C78.6456 97.9433 78.81 98.5077 78.81 99.1981C78.81 99.8885 78.6347 100.491 78.284 101.006C77.9443 101.521 77.4566 101.927 76.821 102.223C76.1854 102.508 75.4348 102.65 74.569 102.65ZM87.0948 102.42V92.5243H83.5607V90.9134H92.4042V92.5243H88.8701V102.42H87.0948ZM98.1228 102.42V90.9134H99.8981V102.42H98.1228ZM110.4 102.65C109.578 102.65 108.844 102.475 108.198 102.124C107.551 101.762 107.042 101.236 106.669 100.546C106.296 99.8556 106.11 99.0118 106.11 98.0146V95.3188C106.11 93.8174 106.521 92.6723 107.343 91.8833C108.165 91.0833 109.277 90.6833 110.68 90.6833C112.061 90.6833 113.124 91.0614 113.869 91.8175C114.614 92.5627 114.987 93.5654 114.987 94.8256V94.9078H113.228V94.7763C113.228 94.3051 113.135 93.8832 112.948 93.5106C112.762 93.1271 112.482 92.8257 112.11 92.6065C111.737 92.3873 111.261 92.2778 110.68 92.2778C109.803 92.2778 109.118 92.5462 108.625 93.0832C108.132 93.6092 107.885 94.3435 107.885 95.2859V98.0475C107.885 98.9789 108.132 99.7186 108.625 100.267C109.118 100.804 109.809 101.072 110.696 101.072C111.573 101.072 112.214 100.831 112.619 100.349C113.025 99.8666 113.228 99.2419 113.228 98.4748V98.2611H110.137V96.7324H114.987V102.42H113.343V101.253H113.08C112.981 101.461 112.833 101.675 112.636 101.894C112.45 102.113 112.176 102.294 111.814 102.436C111.463 102.579 110.992 102.65 110.4 102.65ZM120.528 102.42L123.816 90.9134H126.939L130.21 102.42H128.386L127.629 99.7077H123.125L122.369 102.42H120.528ZM123.569 98.0639H127.186L125.509 92.0148H125.246L123.569 98.0639ZM140.024 102.65C138.621 102.65 137.509 102.256 136.687 101.467C135.865 100.667 135.454 99.5159 135.454 98.0146V95.3188C135.454 93.8174 135.865 92.6723 136.687 91.8833C137.509 91.0833 138.621 90.6833 140.024 90.6833C141.405 90.6833 142.468 91.0668 143.213 91.8339C143.969 92.601 144.347 93.6476 144.347 94.9736V95.0722H142.588V94.9243C142.588 94.1462 142.375 93.5106 141.947 93.0175C141.531 92.5243 140.89 92.2778 140.024 92.2778C139.147 92.2778 138.462 92.5462 137.969 93.0832C137.476 93.6092 137.229 94.3435 137.229 95.2859V98.0475C137.229 98.9789 137.476 99.7132 137.969 100.25C138.462 100.787 139.147 101.056 140.024 101.056C140.89 101.056 141.531 100.809 141.947 100.316C142.375 99.8118 142.588 99.1762 142.588 98.4091V98.1296H144.347V98.3598C144.347 99.6858 143.969 100.732 143.213 101.499C142.468 102.267 141.405 102.65 140.024 102.65ZM140.024 105.872C139.684 105.872 139.355 105.828 139.038 105.74C138.72 105.664 138.446 105.576 138.216 105.477L138.577 104.442C138.775 104.529 138.983 104.606 139.202 104.672C139.432 104.738 139.684 104.771 139.958 104.771C140.188 104.771 140.375 104.727 140.517 104.639C140.67 104.562 140.747 104.436 140.747 104.261C140.747 104.086 140.676 103.96 140.534 103.883C140.402 103.806 140.199 103.768 139.925 103.768H139.317L139.449 102.075H140.649L140.566 103.11C140.983 103.11 141.328 103.22 141.602 103.439C141.887 103.669 142.029 104.003 142.029 104.442C142.029 104.771 141.931 105.039 141.733 105.247C141.547 105.466 141.301 105.625 140.994 105.724C140.698 105.823 140.375 105.872 140.024 105.872ZM149.455 102.42L152.743 90.9134H155.866L159.137 102.42H157.312L156.556 99.7077H152.052L151.296 102.42H149.455ZM152.496 98.0639H156.112L154.436 92.0148H154.173L152.496 98.0639ZM152.365 90.0587L151.444 89.3683L151.97 88.6121C152.134 88.371 152.321 88.1847 152.529 88.0532C152.737 87.9108 152.989 87.8395 153.285 87.8395C153.548 87.8395 153.767 87.8889 153.943 87.9875C154.118 88.0752 154.304 88.2121 154.501 88.3984C154.622 88.519 154.737 88.6231 154.847 88.7107C154.956 88.7875 155.082 88.8258 155.225 88.8258C155.389 88.8258 155.515 88.782 155.603 88.6943C155.701 88.5957 155.795 88.4916 155.882 88.382L156.244 87.8724L157.148 88.5464L156.622 89.3189C156.458 89.5491 156.271 89.7354 156.063 89.8778C155.866 90.0203 155.614 90.0915 155.307 90.0915C155.055 90.0915 154.841 90.0477 154.666 89.96C154.49 89.8614 154.304 89.7189 154.107 89.5326C153.975 89.4121 153.855 89.308 153.745 89.2203C153.647 89.1327 153.521 89.0888 153.367 89.0888C153.214 89.0888 153.088 89.1381 152.989 89.2368C152.891 89.3354 152.797 89.4395 152.71 89.5491L152.365 90.0587ZM169 102.65C167.586 102.65 166.463 102.256 165.63 101.467C164.797 100.667 164.381 99.5159 164.381 98.0146V95.3188C164.381 93.8174 164.797 92.6723 165.63 91.8833C166.463 91.0833 167.586 90.6833 169 90.6833C170.414 90.6833 171.537 91.0833 172.37 91.8833C173.214 92.6723 173.635 93.8174 173.635 95.3188V98.0146C173.635 99.5159 173.214 100.667 172.37 101.467C171.537 102.256 170.414 102.65 169 102.65ZM169 101.056C169.91 101.056 170.611 100.793 171.104 100.267C171.597 99.7296 171.844 99.0008 171.844 98.0803V95.253C171.844 94.3325 171.597 93.6092 171.104 93.0832C170.611 92.5462 169.91 92.2778 169 92.2778C168.112 92.2778 167.417 92.5462 166.912 93.0832C166.408 93.6092 166.156 94.3325 166.156 95.253V98.0803C166.156 99.0008 166.408 99.7296 166.912 100.267C167.417 100.793 168.112 101.056 169 101.056ZM188.146 102.42V90.9134H195.395V92.5243H189.921V95.8283H194.935V97.4393H189.921V100.809H195.477V102.42H188.146ZM209.736 102.42V90.9134H216.986V92.5243H211.512V95.8283H216.525V97.4393H211.512V100.809H217.068V102.42H209.736ZM226.94 102.65C226.075 102.65 225.307 102.497 224.639 102.19C223.97 101.883 223.444 101.434 223.061 100.842C222.688 100.239 222.502 99.5104 222.502 98.6557V98.2447H224.261V98.6557C224.261 99.4666 224.502 100.075 224.984 100.48C225.477 100.886 226.129 101.088 226.94 101.088C227.762 101.088 228.381 100.919 228.798 100.579C229.214 100.228 229.422 99.7789 229.422 99.231C229.422 98.8693 229.324 98.5735 229.126 98.3433C228.929 98.1132 228.65 97.9324 228.288 97.8009C227.927 97.6584 227.494 97.5269 226.99 97.4064L226.381 97.2584C225.647 97.0831 225.006 96.8694 224.458 96.6174C223.921 96.3544 223.505 96.0092 223.209 95.5818C222.913 95.1544 222.765 94.6065 222.765 93.938C222.765 93.2586 222.929 92.6778 223.258 92.1956C223.598 91.7134 224.064 91.3408 224.655 91.0778C225.247 90.8148 225.943 90.6833 226.743 90.6833C227.543 90.6833 228.255 90.8203 228.88 91.0942C229.516 91.3682 230.014 91.7737 230.376 92.3106C230.737 92.8476 230.918 93.5216 230.918 94.3325V94.9243H229.159V94.3325C229.159 93.8394 229.055 93.4394 228.847 93.1325C228.65 92.8257 228.37 92.601 228.009 92.4586C227.647 92.3161 227.225 92.2449 226.743 92.2449C226.042 92.2449 225.494 92.3928 225.099 92.6887C224.716 92.9736 224.524 93.3736 224.524 93.8887C224.524 94.2393 224.606 94.5298 224.77 94.7599C224.946 94.9791 225.198 95.1599 225.527 95.3023C225.855 95.4448 226.266 95.5708 226.759 95.6804L227.368 95.8283C228.113 95.9927 228.77 96.2064 229.34 96.4694C229.91 96.7215 230.359 97.0667 230.688 97.505C231.017 97.9433 231.181 98.5077 231.181 99.1981C231.181 99.8885 231.006 100.491 230.655 101.006C230.315 101.521 229.828 101.927 229.192 102.223C228.557 102.508 227.806 102.65 226.94 102.65ZM237.154 102.42V90.9134H241.724C242.425 90.9134 243.05 91.0559 243.598 91.3408C244.157 91.6148 244.59 92.0093 244.897 92.5243C245.214 93.0284 245.373 93.6366 245.373 94.3489V94.5626C245.373 95.2749 245.209 95.8886 244.88 96.4037C244.562 96.9187 244.129 97.3132 243.582 97.5872C243.034 97.8612 242.414 97.9981 241.724 97.9981H238.93V102.42H237.154ZM238.93 96.3872H241.543C242.168 96.3872 242.666 96.2228 243.039 95.8941C243.412 95.5653 243.598 95.116 243.598 94.5462V94.3818C243.598 93.801 243.412 93.3462 243.039 93.0175C242.666 92.6887 242.168 92.5243 241.543 92.5243H238.93V96.3872ZM251.168 102.42V90.9134H252.944V102.42H251.168ZM263.775 102.65C262.361 102.65 261.238 102.256 260.405 101.467C259.572 100.667 259.156 99.5159 259.156 98.0146V95.3188C259.156 93.8174 259.572 92.6723 260.405 91.8833C261.238 91.0833 262.361 90.6833 263.775 90.6833C265.188 90.6833 266.311 91.0833 267.144 91.8833C267.988 92.6723 268.41 93.8174 268.41 95.3188V98.0146C268.41 99.5159 267.988 100.667 267.144 101.467C266.311 102.256 265.188 102.65 263.775 102.65ZM263.775 101.056C264.684 101.056 265.385 100.793 265.879 100.267C266.372 99.7296 266.618 99.0008 266.618 98.0803V95.253C266.618 94.3325 266.372 93.6092 265.879 93.0832C265.385 92.5462 264.684 92.2778 263.775 92.2778C262.887 92.2778 262.191 92.5462 261.687 93.0832C261.183 93.6092 260.931 94.3325 260.931 95.253V98.0803C260.931 99.0008 261.183 99.7296 261.687 100.267C262.191 100.793 262.887 101.056 263.775 101.056ZM274.621 102.42V90.9134H278.04L281.163 101.236H281.426V90.9134H283.185V102.42H279.766L276.643 92.0805H276.38V102.42H274.621ZM288.84 102.42L292.127 90.9134H295.25L298.522 102.42H296.697L295.941 99.7077H291.437L290.681 102.42H288.84ZM291.881 98.0639H295.497L293.82 92.0148H293.557L291.881 98.0639ZM308.056 102.65C307.234 102.65 306.5 102.475 305.853 102.124C305.207 101.762 304.697 101.236 304.325 100.546C303.952 99.8556 303.766 99.0118 303.766 98.0146V95.3188C303.766 93.8174 304.177 92.6723 304.998 91.8833C305.82 91.0833 306.933 90.6833 308.335 90.6833C309.716 90.6833 310.779 91.0614 311.524 91.8175C312.27 92.5627 312.642 93.5654 312.642 94.8256V94.9078H310.883V94.7763C310.883 94.3051 310.79 93.8832 310.604 93.5106C310.418 93.1271 310.138 92.8257 309.765 92.6065C309.393 92.3873 308.916 92.2778 308.335 92.2778C307.459 92.2778 306.774 92.5462 306.281 93.0832C305.788 93.6092 305.541 94.3435 305.541 95.2859V98.0475C305.541 98.9789 305.788 99.7186 306.281 100.267C306.774 100.804 307.464 101.072 308.352 101.072C309.229 101.072 309.87 100.831 310.275 100.349C310.681 99.8666 310.883 99.2419 310.883 98.4748V98.2611H307.793V96.7324H312.642V102.42H310.998V101.253H310.735C310.637 101.461 310.489 101.675 310.291 101.894C310.105 102.113 309.831 102.294 309.47 102.436C309.119 102.579 308.648 102.65 308.056 102.65ZM319.039 102.42V90.9134H326.288V92.5243H320.814V95.8283H325.827V97.4393H320.814V100.809H326.37V102.42H319.039ZM332.33 102.42V90.9134H335.667L338.182 101.236H338.445L340.96 90.9134H344.297V102.42H342.571V92.1627H342.308L339.809 102.42H336.818L334.319 92.1627H334.056V102.42H332.33Z" fill="#F0F0F0"/>
<defs>
<linearGradient id="paint0_linear_1427_4367" x1="15.2867" y1="45.371" x2="15.2867" y2="76.9241" gradientUnits="userSpaceOnUse">
<stop stop-color="#D1D1D1"/>
<stop offset="1" stop-color="white"/>
</linearGradient>
<linearGradient id="paint1_linear_1427_4367" x1="116.916" y1="45.371" x2="116.916" y2="76.9114" gradientUnits="userSpaceOnUse">
<stop stop-color="#D1D1D1"/>
<stop offset="1" stop-color="white"/>
</linearGradient>
<linearGradient id="paint2_linear_1427_4367" x1="54.2594" y1="45.371" x2="54.2594" y2="76.9241" gradientUnits="userSpaceOnUse">
<stop stop-color="#D1D1D1"/>
<stop offset="1" stop-color="white"/>
</linearGradient>
<linearGradient id="paint3_linear_1427_4367" x1="151.302" y1="45.371" x2="151.302" y2="76.9241" gradientUnits="userSpaceOnUse">
<stop stop-color="#D1D1D1"/>
<stop offset="1" stop-color="white"/>
</linearGradient>
<linearGradient id="paint4_linear_1427_4367" x1="82.6645" y1="45.371" x2="82.6645" y2="76.9165" gradientUnits="userSpaceOnUse">
<stop stop-color="#D1D1D1"/>
<stop offset="1" stop-color="white"/>
</linearGradient>
<linearGradient id="paint5_linear_1427_4367" x1="347.96" y1="45.371" x2="347.96" y2="76.7162" gradientUnits="userSpaceOnUse">
<stop stop-color="#D1D1D1"/>
<stop offset="1" stop-color="white"/>
</linearGradient>
<linearGradient id="paint6_linear_1427_4367" x1="270.459" y1="45.371" x2="270.459" y2="76.7162" gradientUnits="userSpaceOnUse">
<stop stop-color="#D1D1D1"/>
<stop offset="1" stop-color="white"/>
</linearGradient>
<linearGradient id="paint7_linear_1427_4367" x1="242.563" y1="45.371" x2="242.563" y2="76.7162" gradientUnits="userSpaceOnUse">
<stop stop-color="#D1D1D1"/>
<stop offset="1" stop-color="white"/>
</linearGradient>
<linearGradient id="paint8_linear_1427_4367" x1="215.532" y1="45.371" x2="215.532" y2="76.7162" gradientUnits="userSpaceOnUse">
<stop stop-color="#D1D1D1"/>
<stop offset="1" stop-color="white"/>
</linearGradient>
<linearGradient id="paint9_linear_1427_4367" x1="297.778" y1="45.371" x2="297.778" y2="76.7162" gradientUnits="userSpaceOnUse">
<stop stop-color="#D1D1D1"/>
<stop offset="1" stop-color="white"/>
</linearGradient>
<linearGradient id="paint10_linear_1427_4367" x1="189.795" y1="45.371" x2="189.795" y2="76.7162" gradientUnits="userSpaceOnUse">
<stop stop-color="#D1D1D1"/>
<stop offset="1" stop-color="white"/>
</linearGradient>
<linearGradient id="paint11_linear_1427_4367" x1="322.078" y1="45.371" x2="322.078" y2="76.7162" gradientUnits="userSpaceOnUse">
<stop stop-color="#D1D1D1"/>
<stop offset="1" stop-color="white"/>
</linearGradient>
</defs>
</svg>
